<?xml version="1.0" encoding="utf-8"?>
<!-- Generator: Adobe Illustrator 23.0.6, SVG Export Plug-In . SVG Version: 6.00 Build 0)  -->
<svg version="1.1" id="图层_1" xmlns="http://www.w3.org/2000/svg" xmlns:xlink="http://www.w3.org/1999/xlink" x="0px" y="0px"
	 viewBox="0 0 322 198.2"  xml:space="preserve">
	 <defs>
		<style type="text/css">
			<![CDATA[
				#font{
					animation: move 3s linear forwards;
				}
				@keyframes move{
					0%{
						stroke-dasharray:109.6px, 46px;
					}
					100%{
						stroke-dasharry:275.4px,97.6px;
					}
				}
			]]>
		</style>
	</defs>
<g id="login">
<!-- 书,翻动效果做,logo就用静态的 -->
	<path id="font" d="M109.6,46c3.5-5.3,6.5-8,9.2-8c2.7,0,6.9,2.4,12.7,7.1c5.8,4.7,8.7,8.6,8.7,11.5c-0.1,1.7-0.8,3.2-2,4.4
		c-6.5,7.1-9.8,12.5-9.8,16.4c0,0.9,0.2,1.8,0.6,2.7c0.4,0.9,0.6,1.9,0.6,2.9c0,2.7-2.8,4.8-8.4,6.4c-14,4.3-23.5,10.8-28.5,19.7
		c-4.9,8.4-7.5,18-7.5,27.7c0,2.7,2.4,4.7,7.2,6.2c4.8,1.5,10.9,2.2,18.2,2.2c7.1,0,14.2-0.4,21.2-1.3c5.4-0.6,10.7-1.7,15.8-3.3
		c3.3-1,6.2-2.8,8.7-5.2c2-2,3.4-4.4,4.1-7.1c0.8-3.8,1.1-7.7,1-11.6c0-5.1,0.2-7.7,0.6-7.7c0.4,0,1.2,2.1,2.4,6.4
		c2.9,11.2,6.2,19.2,9.8,24c1.3,1.5,2.1,3.4,2.2,5.4c0,4.5-4.9,8.2-14.8,11.1s-22.6,4.3-38.2,4.3c-7,0.1-13.9-0.3-20.8-1.2
		c-5.2-0.8-9-1.8-11.5-3.1c-2.6-1.3-4.9-3.1-6.9-5.2c-2.1-2.2-3.7-4.8-4.8-7.6c-1.1-2.9-1.6-7.6-1.6-14.2s1.7-16.3,5-29.1
		c-2.3-3.1-3.4-5.7-3.4-7.9s2.1-3.9,6.4-5.1c10.5-2.9,17.6-5.9,21.1-8.9c3.4-2.9,6.2-6.5,8.2-10.5c1.9-4,2.9-6.9,2.9-8.6
		c0-1.7-0.5-2.6-1.6-2.6c-2,0-4.9,2.1-8.7,6.3c-3.3,4-8.3,6.3-13.5,6.3c-2.3,0-4.6-0.4-6.8-1.2c-4.9,0.4-9.5,3.6-13.7,9.6
		s-9.7,19-16.6,38.9c-6.9,19.9-10.3,32.3-10.3,37.1l0.4,6.2c0,2.9-1,4.4-3,4.4s-4.5-2.4-7.6-7.2c-3.1-4.8-4.6-8.8-4.6-12
		c0-0.9,0.1-1.9,0.2-2.8c0.5-2.7,1-8.4,1.5-17.1s0.7-17.8,0.7-27.1c-4.4,5.9-7.3,9.9-8.8,12c-1.1,1.8-2.7,3.3-4.6,4.2
		c-1.5,0.6-3,1-4.6,1c-4.8,0-8.7-2.4-11.8-7.1C1.5,103,0,98.4,0,94c0-2.7,0.7-5.4,1.9-7.8c1.3-2.7,2.1-4,2.6-4s0.7,0.6,0.7,1.9
		c0,1.5-0.2,3-0.4,4.5c-0.2,1.5-0.4,3-0.4,4.5C4.4,94.4,5.3,95,7,95c3.7,0,8.2-1.5,13.3-4.5s8.4-5.5,9.7-7.6
		c1.4-2.1,3.4-3.7,5.7-4.7c2.6-1.1,5.4-1.6,8.2-1.6c2.8-0.1,5.5,1.1,7.2,3.3c1.7,2,2.7,4.5,2.7,7.1c-0.2,2.2-0.9,4.4-2.1,6.3
		c-1.4,2.5-2.9,6.8-4.5,13.1c-1.6,6.3-2.4,10.8-2.4,13.6c-0.1,1.9,0.1,3.8,0.4,5.6c7.3-16.3,13.4-28.7,18.2-37.4
		c4.6-8.3,10-16.2,16.2-23.4c-0.1-0.5-0.2-0.9-0.2-1.4c0-2.1,2.1-4.4,6.2-6.8C89.7,54.2,97.7,50.7,109.6,46z M43.6,34
		c3.9,0.3,7.8,0.8,11.6,1.5c6.1,1,9.8,2.8,10.9,5.3c1.1,2.4,1.7,5,1.7,7.7c0,2.6-0.4,4.2-1.2,4.8c-1.5,0.9-3.2,1.5-4.9,1.8
		c-2.2,0.5-4.4,1.2-6.6,2c-1.9,0.7-6.2,2.6-12.7,5.7L21,73c-3.5,1.6-5.6,2.4-6.3,2.4c-0.7,0-1.1-0.1-1.1-0.2c0-0.4,0.6-1,1.8-1.8
		c5.1-3.5,10-7.3,14.6-11.5c5.5-4.9,8.8-8.1,10.1-9.7c1.1-1.2,1.7-2.6,1.9-4.2c0-1.1-1-2.3-3-3.6c-2.1-1.5-3.8-3.5-4.9-5.8
		c-1.3-2.5-1.9-4.1-1.9-4.6s0.2-0.8,0.5-0.8c0.8,0.1,1.5,0.4,2.2,0.8c0.9,0.5,1.9,0.7,2.9,0.8c0.9,0,1.9-0.2,2.8-0.4
		C41.6,34.1,42.6,34,43.6,34z M275.8,30.2c16-5.3,26.1-8,30.3-8c4.2,0,8.2,1.7,11.1,4.7c3.2,3.1,4.8,5.8,4.8,8s-1.3,3.5-3.8,3.9
		c-1.4,0.2-2.7,0.7-3.9,1.3c-1.5,0.7-5.4,3-11.5,6.7l-20.6,12.6c4.3,2.7,6.4,5.8,6.4,9.4c0.1,1.4-0.5,2.7-1.6,3.6
		c-2.9,2.1-6.8,6-11.6,11.6c5.7-0.6,11.5-1,17.3-1c5.1,0,9.2,0.8,12.3,2.4c3.4,1.8,6.4,4.3,8.9,7.2c2.9,3.2,4.3,6.1,4.3,8.6
		s-2.2,8.8-6.7,18.8c-4.5,10-8,16.6-10.7,19.8c0.1,1,0.2,2.1,0.2,3.1c0.1,0.7-0.2,1.4-0.8,1.9c-0.9,0.5-2,0.7-3,0.6l-7.2-0.2
		c-5.4,0.1-10.7,0.5-16,1.4c-0.3,1.9-0.4,12.8-0.4,32.8c0,2.7-1.2,6.5-3.5,11.4c-2.3,4.9-3.9,7.4-4.7,7.4s-1.9-0.7-3.2-2.2
		c-4.5-5.2-12.7-11.5-24.6-18.8c-1.9-1.2-2.8-2.2-2.8-2.9s0.5-1.1,1.4-1.1c1.4,0.1,2.9,0.3,4.3,0.6c2.5,0.4,5.1,0.6,7.6,0.6
		c2.6,0.1,5.3-0.3,7.8-1c2.1-0.7,3.3-1.4,3.6-2.3s0.5-3.9,0.5-9s-0.1-9-0.4-11.7c-5.6,2.7-10.5,4.9-14.6,6.6
		c-4.1,1.7-6.9,2.6-8.2,2.6c-2.4,0.1-4.7-1-6.2-2.9c-1.6-1.9-2.4-4.3-2.4-6.8c-0.1-2,0.2-4.1,0.9-6c0.3-1.1,1-2,1.9-2.6
		c1.3-0.4,2.6-0.6,4-0.5c1.9,0,3.7-0.5,5.3-1.5c2.1-1.4,4-3,5.9-4.7c-4.5-1.1-7.7-2.1-9.5-3.2c-1.8-1-2.8-2.9-2.7-4.9
		c0.1-2.6,1.1-5.1,2.8-7.1c1.7-2.3,3.9-4.3,6.4-5.6c7.2-3.5,11.6-5.8,13.3-7c1.6-1,2.4-2.8,2.3-4.6c-7.3,2-16.6,6.1-27.8,12.4
		c-1.1,0.6-2.3,1-3.6,1c-3.1,0-4.6-1.7-4.6-5.2c0.2-2.5,0.7-5,1.4-7.4c0.9-3.7,2.6-5.7,5-6c3.3-0.3,7.1-1.6,11.2-4.1
		c4.3-2.6,8.2-5.9,11.6-9.7c-5.9,1.6-10.3,3-13.3,4.1c-1.8,0.8-3.6,1.3-5.5,1.7c-2,0-3-1.1-3-3.4c0-1.5,0.7-4,2-7.7s3-6,5-7.1
		c14.1-7.1,21.2-12.1,21.2-15c-0.1-0.9-0.5-1.8-1.2-2.4c-7.5,2.3-15.5,5-24,8.3c-8.5,3.3-14.2,5.7-17,7.2c-2.8,1.5-5.1,2.3-7,2.3
		c-4.4,0-8.2-2.1-11.3-6.4c-3.1-4.3-4.7-6.9-4.7-7.9c0-1,0.7-1.5,2-1.5l2.6,0.2c5.3,0,24.9-6.3,58.6-18.8c-0.5-12.1-1-19.8-1.3-23
		s-0.9-5.2-1.7-6c-0.8-0.7-1.2-1.7-1.2-2.8c0-1.1,0.8-2.2,2.5-3.3c1.8-1.2,4-1.8,6.2-1.7c2.5,0,4.2,0.4,5.3,1.3s2.7,3.1,4.8,6.6
		c1.9,3,3.3,6.3,4.2,9.8C275.9,21.8,276.1,26,275.8,30.2L275.8,30.2z M253.4,126.6c-0.9-0.1-1.8-0.2-2.7-0.2c-1.1,0-2.3,0.4-3.2,1
		c-0.9,0.5-1.5,1.5-1.5,2.5c0,1,0.7,2,2.2,2.9C250.3,131.1,252.1,129,253.4,126.6L253.4,126.6z M279.8,132c0.1-6.7-0.5-10-2-10
		c-0.7,0-1.4,1.1-2.1,3.2c-0.7,2.2-1.2,4.5-1.3,6.8C276.2,131.9,278,131.9,279.8,132L279.8,132z M275.4,97.6c0,2.4,1.3,6.3,4,11.8
		l6,12c1.2,2.5,2.3,3.8,3.2,3.8c1.5,0,3.5-2.9,6.2-8.7c2.5-5.1,3.9-10.8,4-16.5c0-2-0.4-3.3-1.1-4s-2.4-1-5-1S284.3,95.9,275.4,97.6
		L275.4,97.6z"/>
</g>
</svg>
