<svg
    xmlns="http://www.w3.org/2000/svg" viewBox="0 0 393 198.2">
    <title>login</title>
    <g id="login" data-name="图层 1">
        <path d="M109.6,46q5.2-8,9.2-8t12.7,7.1q8.7,7.09,8.7,11.5a6.61,6.61,0,0,1-2,4.4q-9.8,10.6-9.8,16.4a7.37,7.37,0,0,0,.6,2.7,7.8,7.8,0,0,1,.6,2.9q0,4-8.4,6.4-21,6.41-28.5,19.7a55.64,55.64,0,0,0-7.5,27.7q0,4,7.2,6.2t18.2,2.2a167.06,167.06,0,0,0,21.2-1.3,79.3,79.3,0,0,0,15.8-3.3,22.43,22.43,0,0,0,8.7-5.2,15.74,15.74,0,0,0,4.1-7.1,50,50,0,0,0,1-11.6q0-7.7.6-7.7t2.4,6.4q4.4,16.8,9.8,24a8.84,8.84,0,0,1,2.2,5.4q0,6.8-14.8,11.1t-38.2,4.3a142.91,142.91,0,0,1-20.8-1.2q-7.8-1.2-11.5-3.1a26.43,26.43,0,0,1-6.9-5.2,21.71,21.71,0,0,1-4.8-7.6q-1.61-4.31-1.6-14.2t5-29.1q-3.4-4.6-3.4-7.9t6.4-5.1q15.8-4.39,21.1-8.9a31.88,31.88,0,0,0,8.2-10.5q2.9-6,2.9-8.6c0-1.73-.53-2.6-1.6-2.6q-3,0-8.7,6.3a17.64,17.64,0,0,1-13.5,6.3,20.32,20.32,0,0,1-6.8-1.2q-7.4.6-13.7,9.6T57.1,116.1Q46.79,146,46.8,153.2l.4,6.2q0,4.4-3,4.4t-7.6-7.2q-4.61-7.2-4.6-12a20.28,20.28,0,0,1,.2-2.8q.79-4,1.5-17.1t.7-27.1q-6.6,8.81-8.8,12a11.19,11.19,0,0,1-4.6,4.2,11.88,11.88,0,0,1-4.6,1q-7.2,0-11.8-7.1T0,94a18.09,18.09,0,0,1,1.9-7.8c1.27-2.67,2.13-4,2.6-4s.7.63.7,1.9a29.66,29.66,0,0,1-.4,4.5,29.66,29.66,0,0,0-.4,4.5c0,1.27.87,1.9,2.6,1.9q5.6,0,13.3-4.5T30,82.9a12.43,12.43,0,0,1,5.7-4.7,20.4,20.4,0,0,1,8.2-1.6,8.83,8.83,0,0,1,7.2,3.3A11,11,0,0,1,53.8,87a13.42,13.42,0,0,1-2.1,6.3q-2.1,3.7-4.5,13.1T44.8,120a24.6,24.6,0,0,0,.4,5.6q11-24.4,18.2-37.4A136.88,136.88,0,0,1,79.6,64.8a6,6,0,0,1-.2-1.4q0-3.19,6.2-6.8T109.6,46Zm-66-12a101.36,101.36,0,0,1,11.6,1.5Q64.4,37,66.1,40.8a18.74,18.74,0,0,1,1.7,7.7q0,3.9-1.2,4.8a15.09,15.09,0,0,1-4.9,1.8,56.31,56.31,0,0,0-6.6,2q-2.9,1.09-12.7,5.7L21,73q-5.2,2.4-6.3,2.4c-.73,0-1.1-.07-1.1-.2q0-.6,1.8-1.8A129.42,129.42,0,0,0,30,61.9q8.2-7.3,10.1-9.7A7.18,7.18,0,0,0,42,48q0-1.61-3-3.6a14.65,14.65,0,0,1-4.9-5.8c-1.27-2.53-1.9-4.07-1.9-4.6s.17-.8.5-.8a7.45,7.45,0,0,1,2.2.8,7.12,7.12,0,0,0,2.9.8,11.61,11.61,0,0,0,2.8-.4A12.28,12.28,0,0,1,43.6,34Zm303.2-3.8q24-8,30.3-8a15.41,15.41,0,0,1,11.1,4.7q4.8,4.7,4.8,8t-3.8,3.9a13.2,13.2,0,0,0-3.9,1.3q-2.3,1.09-11.5,6.7L353.2,59.4q6.41,4,6.4,9.4a4.2,4.2,0,0,1-1.6,3.6Q353.61,75.6,346.4,84a167.64,167.64,0,0,1,17.3-1q7.69,0,12.3,2.4a32.05,32.05,0,0,1,8.9,7.2q4.31,4.8,4.3,8.6T382.5,120q-6.71,15-10.7,19.8a29.47,29.47,0,0,1,.2,3.1,2.22,2.22,0,0,1-.8,1.9,5.3,5.3,0,0,1-3,.6l-7.2-.2a108.74,108.74,0,0,0-16,1.4q-.4,2.81-.4,32.8,0,4-3.5,11.4t-4.7,7.4c-.8,0-1.87-.73-3.2-2.2q-6.79-7.8-24.6-18.8c-1.87-1.2-2.8-2.17-2.8-2.9s.47-1.1,1.4-1.1a23.61,23.61,0,0,1,4.3.6,38.86,38.86,0,0,0,7.6.6,25.72,25.72,0,0,0,7.8-1c2.07-.67,3.27-1.43,3.6-2.3s.5-3.87.5-9-.13-9-.4-11.7q-8.4,4-14.6,6.6c-4.13,1.73-6.87,2.6-8.2,2.6a7.69,7.69,0,0,1-6.2-2.9,10.33,10.33,0,0,1-2.4-6.8,15.76,15.76,0,0,1,.9-6,5,5,0,0,1,1.9-2.6,10.48,10.48,0,0,1,4-.5,9.48,9.48,0,0,0,5.3-1.5,54.51,54.51,0,0,0,5.9-4.7q-6.79-1.6-9.5-3.2a5.31,5.31,0,0,1-2.7-4.9,12.19,12.19,0,0,1,2.8-7.1,18.08,18.08,0,0,1,6.4-5.6q10.8-5.2,13.3-7a5,5,0,0,0,2.3-4.6q-11,3-27.8,12.4a7.32,7.32,0,0,1-3.6,1q-4.61,0-4.6-5.2a39.74,39.74,0,0,1,1.4-7.4q1.4-5.59,5-6,5-.41,11.2-4.1A50.59,50.59,0,0,0,323,83.2q-8.81,2.4-13.3,4.1a25.17,25.17,0,0,1-5.5,1.7q-3,0-3-3.4c0-1.47.67-4,2-7.7s3-6,5-7.1q21.19-10.61,21.2-15a4,4,0,0,0-1.2-2.4q-11.2,3.41-24,8.3t-17,7.2q-4.2,2.3-7,2.3-6.6,0-11.3-6.4t-4.7-7.9c0-1,.67-1.5,2-1.5l2.6.2q8,0,58.6-18.8-.79-18.19-1.3-23t-1.7-6A3.83,3.83,0,0,1,323.2,5c0-1.07.83-2.17,2.5-3.3A10.8,10.8,0,0,1,331.9,0c2.47,0,4.23.43,5.3,1.3s2.67,3.07,4.8,6.6a33.47,33.47,0,0,1,4.2,9.8A49,49,0,0,1,346.8,30.2Zm-22.4,96.4a14.73,14.73,0,0,0-2.7-.2,5.65,5.65,0,0,0-3.2,1,2.94,2.94,0,0,0-1.5,2.5c0,1,.73,2,2.2,2.9A20.45,20.45,0,0,0,324.4,126.6Zm26.4,5.4q.19-10-2-10c-.67,0-1.37,1.07-2.1,3.2a25.08,25.08,0,0,0-1.3,6.8A37.12,37.12,0,0,1,350.8,132Zm-4.4-34.4q0,3.6,4,11.8l6,12q1.8,3.8,3.2,3.8,2.2,0,6.2-8.7a39.51,39.51,0,0,0,4-16.5c0-2-.37-3.33-1.1-4s-2.4-1-5-1S355.33,95.87,346.4,97.6Z"/>
    </g>
</svg>