<?xml version="1.0" encoding="utf-8"?>
<svg version="1.1" id="logo" xmlns="http://www.w3.org/2000/svg" xmlns:xlink="http://www.w3.org/1999/xlink" x="0px" y="0px"
	 viewBox="0 0 350 240" style="enable-background:new 0 0 350 240;" xml:space="preserve">
<style type="text/css">
	.st0{fill:#EEEEEE;}
	.st1{fill:#EEEEEE;stroke:#000000;stroke-width:3;stroke-miterlimit:10;}
	.st2{fill:none;stroke:#000000;stroke-width:3;stroke-miterlimit:10;}
	.st3{enable-background:new;}
	.st4{clip-path:url(#SVGID_2_);enable-background:new;}
	.st5{fill:#929292;}
	.st6{fill:#8E8E8E;}
	.st7{fill:#8A8A8A;}
	.st8{fill:#878787;}
	.st9{fill:#838383;}
	.st10{fill:#7F7F7F;}
	.st11{fill:#7B7B7B;}
	.st12{fill:#787878;}
	.st13{fill:#747474;}
	.st14{fill:#707070;}
	.st15{fill:#6C6C6C;}
	.st16{fill:#696969;}
	.st17{fill:#656565;}
	.st18{fill:#616161;}
	.st19{clip-path:url(#SVGID_4_);enable-background:new;}
	.st20{clip-path:url(#SVGID_6_);enable-background:new;}
	.st21{clip-path:url(#SVGID_8_);enable-background:new;}
	.st22{clip-path:url(#SVGID_10_);enable-background:new;}
	.st23{clip-path:url(#SVGID_12_);enable-background:new;}
	.st24{clip-path:url(#SVGID_14_);enable-background:new;}
	.st25{clip-path:url(#SVGID_16_);enable-background:new;}
	.st26{clip-path:url(#SVGID_18_);enable-background:new;}
	.st27{clip-path:url(#SVGID_20_);enable-background:new;}
	.st28{clip-path:url(#SVGID_22_);enable-background:new;}
	.st29{clip-path:url(#SVGID_24_);enable-background:new;}
	.st30{clip-path:url(#SVGID_26_);enable-background:new;}
	.st31{clip-path:url(#SVGID_28_);enable-background:new;}
	.st32{clip-path:url(#SVGID_30_);enable-background:new;}
	.st33{clip-path:url(#SVGID_32_);enable-background:new;}
	.st34{font-family:'STBaoliSC-Regular';}
	.st35{font-size:18px;glyph-orientation-vertical:0;writing-mode:tb;}

	#pen{
		animation: animMovePen ease 1s both;
	}
	#txt{
		animation: animWrite ease 2s both;
	}
	@keyframes animWrite{
		from{
			opacity: 0;	
		}
		to{
			opacity: 1;
		}
	}
	@keyframes animMovePen{
		 0%{
		 	transform: translateX(0) translateY(-35pt) rotateY(10deg);
		 }
		 20%{
		 	transform: translateX(0) translateY(-28pt) rotateY(-7deg);
		 }
		 40%{
			transform: translateX(0) translateY(-20.5pt) rotateY(8deg);
		 }
		 50%{
		 	transform: translateX(0) translateY(-17.5pt) rotateY(0deg);
		 }
		 60%{
			transform: translateX(0) translateY(-14pt) rotateY(9deg);
		 }
		 80%{
		 	transform: translateX(0) translateY(-7pt) rotateY(-8deg);
		 }
		 100%{
			transform: translateX(0) translateY(0) rotateY(0deg);
		 }
	}
</style>
<g id="bg">
	<g id="frame">
		<path d="M330.5,33.5v189h-313v-189H330.5 M331.5,29.5H16.5c-1.7,0-3,1.4-3,3v190.9c0,1.7,1.4,3,3,3h314.9c1.7,0,3-1.4,3-3V32.5
			C334.5,30.9,333.1,29.5,331.5,29.5L331.5,29.5z"/>
	</g>
	<g id="latter-page">
		<rect x="28" y="39" class="st0" width="292" height="173"/>
		<path d="M318.5,40.5v170h-289v-170H318.5 M321.5,37.5h-295v176h295V37.5L321.5,37.5z"/>
	</g>
	<rect id="latter-right" x="174" y="38" class="st1" width="147" height="174"/>
	<rect id="latter-left" x="27.6" y="38.2" class="st2" width="147" height="174"/>
	<g id="left-page">
		<path class="st0" d="M175,211.8c-21.5-6-43.7-9.4-66-10c-2.5-0.1-5-0.1-7.5-0.1c-24.8,0-49.5,3.4-73.4,10.1
			C30.9,154.8,31,43.3,31,38c3.6-3.7,37-23.4,66-24.2c0.8,0,1.6,0,2.4,0c28.8,0,51.8,13.3,67,22.2c3.2,1.9,6.1,3.5,8.5,4.8V211.8z"
			/>
		<path d="M99.5,15.2c28.4,0,51.2,13.2,66.3,22c2.9,1.7,5.5,3.2,7.8,4.4v168.2c-21-5.7-42.7-8.9-64.4-9.5c-2.5-0.1-5-0.1-7.6-0.1
			c-24.2,0-48.4,3.2-71.8,9.6c2.6-56,2.8-160.6,2.8-171.1c5.3-4.6,37.2-22.6,64.6-23.4C97.9,15.2,98.7,15.2,99.5,15.2 M99.5,12.2
			c-0.8,0-1.6,0-2.5,0c-32.4,0.9-69.5,24.5-67.5,25.5c0,0,0,118-3,176c18.2-5.3,44-10.6,75-10.6c2.5,0,4.9,0,7.5,0.1
			c27.3,0.8,50.3,5.5,67.5,10.5c0-61.3,0-112.7,0-174C163,33.1,135.6,12.2,99.5,12.2L99.5,12.2z"/>
	</g>
</g>
<g id="pen">
	<g>
		<g class="st3">
			<g class="st3">
				<defs>
					<path id="SVGID_1_" class="st3" d="M299.7,112.6c1.2,0.3,2.1,1.2,2.4,2.4c0.3,1.8-0.9,3.7-2.7,4.2l-4.7-7.8c0,0,0,0,0,0
						c0,0,0,0,0,0C296.1,111.8,298.1,112.2,299.7,112.6z"/>
				</defs>
				<clipPath id="SVGID_2_">
					<use xlink:href="#SVGID_1_"  style="overflow:visible;"/>
				</clipPath>
				<g class="st4">
					<path class="st5" d="M294.6,111.4l4.7,7.8c0.5-0.1,0.9-0.3,1.3-0.6L294.6,111.4C294.6,111.4,294.6,111.4,294.6,111.4"/>
					<path class="st6" d="M294.6,111.4l6,7.1c0.1-0.1,0.2-0.2,0.4-0.3L294.6,111.4C294.6,111.4,294.6,111.4,294.6,111.4"/>
					<path class="st7" d="M294.6,111.4l6.4,6.8c0.1-0.1,0.2-0.2,0.3-0.3L294.6,111.4C294.6,111.4,294.6,111.4,294.6,111.4"/>
					<path class="st8" d="M294.6,111.4l6.6,6.6c0.1-0.1,0.1-0.2,0.2-0.3L294.6,111.4C294.6,111.4,294.6,111.4,294.6,111.4"/>
					<path class="st9" d="M294.6,111.4l6.8,6.3c0.1-0.1,0.1-0.2,0.2-0.3L294.6,111.4C294.6,111.4,294.6,111.4,294.6,111.4"/>
					<path class="st10" d="M294.6,111.4l7,6.1c0.1-0.1,0.1-0.2,0.1-0.3L294.6,111.4C294.6,111.4,294.6,111.4,294.6,111.4"/>
					<path class="st11" d="M294.6,111.4l7.1,5.8c0-0.1,0.1-0.2,0.1-0.3L294.6,111.4C294.6,111.4,294.6,111.4,294.6,111.4"/>
					<path class="st12" d="M294.6,111.4l7.3,5.5c0-0.1,0.1-0.2,0.1-0.3L294.6,111.4C294.6,111.4,294.6,111.4,294.6,111.4"/>
					<path class="st13" d="M294.6,111.4l7.4,5.3c0-0.1,0.1-0.2,0.1-0.3L294.6,111.4C294.6,111.4,294.6,111.4,294.6,111.4"/>
					<path class="st14" d="M294.6,111.4l7.4,5c0-0.1,0-0.2,0.1-0.3L294.6,111.4C294.6,111.4,294.6,111.4,294.6,111.4"/>
					<path class="st15" d="M294.6,111.4l7.5,4.7c0-0.1,0-0.2,0-0.3L294.6,111.4C294.6,111.4,294.6,111.4,294.6,111.4"/>
					<path class="st16" d="M294.6,111.4l7.5,4.4c0-0.1,0-0.2,0-0.4L294.6,111.4C294.6,111.4,294.6,111.4,294.6,111.4"/>
					<path class="st17" d="M294.6,111.4l7.5,4c0-0.1,0-0.3-0.1-0.4c0,0,0,0,0-0.1L294.6,111.4C294.6,111.4,294.6,111.4,294.6,111.4
						C294.6,111.4,294.6,111.4,294.6,111.4"/>
					<path class="st18" d="M294.6,111.4l7.4,3.5c-0.3-1.2-1.2-2.1-2.4-2.4L294.6,111.4C294.6,111.4,294.6,111.4,294.6,111.4"/>
				</g>
			</g>
			<g class="st3">
				<defs>
					<polygon id="SVGID_3_" class="st3" points="294.6,111.4 298.7,115.9 294.6,111.4"/>
				</defs>
				<clipPath id="SVGID_4_">
					<use xlink:href="#SVGID_3_"  style="overflow:visible;"/>
				</clipPath>
				<g class="st19">
					<polyline class="st18" points="298.7,115.9 294.6,111.4 294.6,111.4 298.7,115.9"/>
				</g>
			</g>
			<g class="st3">
				<defs>
					<path id="SVGID_5_" class="st3" d="M298.7,115.9l-4.1-4.5c0,0,0,0,0,0C295.8,112.8,297.4,114.6,298.7,115.9z"/>
				</defs>
				<clipPath id="SVGID_6_">
					<use xlink:href="#SVGID_5_"  style="overflow:visible;"/>
				</clipPath>
				<g class="st20">
					<polyline class="st18" points="298.7,115.9 294.6,111.4 294.6,111.4 298.7,115.9"/>
					<polyline class="st17" points="298.7,115.9 294.6,111.4 294.6,111.4 298.7,115.9"/>
					<polyline class="st16" points="298.7,115.9 294.6,111.4 294.6,111.4 298.7,115.9"/>
					<polyline class="st15" points="298.7,115.9 294.6,111.4 294.6,111.4 298.7,115.9"/>
					<polyline class="st14" points="298.7,115.9 294.6,111.4 294.6,111.4 298.7,115.9"/>
					<polyline class="st13" points="298.7,115.9 294.6,111.4 294.6,111.4 298.7,115.9"/>
					<polyline class="st12" points="298.7,115.9 294.6,111.4 294.6,111.4 298.7,115.9"/>
					<polyline class="st11" points="298.7,115.9 294.6,111.4 294.6,111.4 298.7,115.9"/>
					<polyline class="st12" points="298.7,115.9 294.6,111.4 294.6,111.4 298.7,115.9"/>
					<polyline class="st13" points="298.7,115.9 294.6,111.4 294.6,111.4 298.7,115.9"/>
					<polyline class="st14" points="298.7,115.9 294.6,111.4 294.6,111.4 298.7,115.9"/>
					<polyline class="st15" points="298.7,115.9 294.6,111.4 294.6,111.4 298.7,115.9"/>
					<polyline class="st16" points="298.7,115.9 294.6,111.4 294.6,111.4 298.7,115.9"/>
					<polyline class="st17" points="298.7,115.9 294.6,111.4 294.6,111.4 298.7,115.9"/>
					<polyline class="st18" points="298.7,115.9 294.6,111.4 294.6,111.4 298.7,115.9"/>
				</g>
			</g>
			<g class="st3">
				<defs>
					<path id="SVGID_7_" class="st3" d="M294.6,111.4C294.6,111.4,294.6,111.4,294.6,111.4l4.1,4.5
						C297.4,114.6,295.8,112.8,294.6,111.4z"/>
				</defs>
				<clipPath id="SVGID_8_">
					<use xlink:href="#SVGID_7_"  style="overflow:visible;"/>
				</clipPath>
				<g class="st21">
					<polyline class="st16" points="298.7,115.9 294.6,111.4 294.6,111.4 298.7,115.9"/>
					<polyline class="st17" points="298.7,115.9 294.6,111.4 294.6,111.4 298.7,115.9"/>
					<polyline class="st18" points="298.7,115.9 294.6,111.4 294.6,111.4 298.7,115.9"/>
				</g>
			</g>
			<g class="st3">
				<defs>
					<polygon id="SVGID_9_" class="st3" points="298.7,115.9 294.6,111.4 294.6,111.4"/>
				</defs>
				<clipPath id="SVGID_10_">
					<use xlink:href="#SVGID_9_"  style="overflow:visible;"/>
				</clipPath>
				<g class="st22">
					<polyline class="st18" points="298.7,115.9 294.6,111.4 294.6,111.4 298.7,115.9"/>
					<polyline class="st17" points="298.7,115.9 294.6,111.4 294.6,111.4 298.7,115.9"/>
					<polyline class="st16" points="298.7,115.9 294.6,111.4 294.6,111.4 298.7,115.9"/>
					<polyline class="st15" points="298.7,115.9 294.6,111.4 294.6,111.4 298.7,115.9"/>
					<polyline class="st14" points="298.7,115.9 294.6,111.4 294.6,111.4 298.7,115.9"/>
					<polyline class="st13" points="298.7,115.9 294.6,111.4 294.6,111.4 298.7,115.9"/>
					<polyline class="st12" points="298.7,115.9 294.6,111.4 294.6,111.4 298.7,115.9"/>
					<polyline class="st11" points="298.7,115.9 294.6,111.4 294.6,111.4 298.7,115.9"/>
				</g>
			</g>
			<g class="st3">
				<defs>
					<polygon id="SVGID_11_" class="st3" points="298.7,115.9 294.6,111.4 294.6,111.4"/>
				</defs>
				<clipPath id="SVGID_12_">
					<use xlink:href="#SVGID_11_"  style="overflow:visible;"/>
				</clipPath>
				<g class="st23">
					<polyline class="st18" points="298.7,115.9 294.6,111.4 294.6,111.4 298.7,115.9"/>
					<polyline class="st17" points="298.7,115.9 294.6,111.4 294.6,111.4 298.7,115.9"/>
					<polyline class="st16" points="298.7,115.9 294.6,111.4 294.6,111.4 298.7,115.9"/>
					<polyline class="st15" points="298.7,115.9 294.6,111.4 294.6,111.4 298.7,115.9"/>
					<polyline class="st14" points="298.7,115.9 294.6,111.4 294.6,111.4 298.7,115.9"/>
					<polyline class="st13" points="298.7,115.9 294.6,111.4 294.6,111.4 298.7,115.9"/>
					<polyline class="st14" points="298.7,115.9 294.6,111.4 294.6,111.4 298.7,115.9"/>
					<polyline class="st15" points="298.7,115.9 294.6,111.4 294.6,111.4 298.7,115.9"/>
					<polyline class="st16" points="298.7,115.9 294.6,111.4 294.6,111.4 298.7,115.9"/>
					<polyline class="st17" points="298.7,115.9 294.6,111.4 294.6,111.4 298.7,115.9"/>
					<polyline class="st18" points="298.7,115.9 294.6,111.4 294.6,111.4 298.7,115.9"/>
				</g>
			</g>
			<g class="st3">
				<defs>
					<path id="SVGID_13_" class="st3" d="M294.6,111.4C294.6,111.4,294.6,111.4,294.6,111.4C294.6,111.4,294.6,111.4,294.6,111.4
						l4.7,7.8c-1.9,0.5-3.7-0.6-4-2.4c0-0.1,0-0.1,0-0.2C295,115,294.8,113,294.6,111.4z"/>
				</defs>
				<clipPath id="SVGID_14_">
					<use xlink:href="#SVGID_13_"  style="overflow:visible;"/>
				</clipPath>
				<g class="st24">
					<path class="st18" d="M294.6,111.4l0.7,5.2c0,0.1,0,0.1,0,0.2c0,0.2,0.1,0.4,0.2,0.6L294.6,111.4
						C294.6,111.4,294.6,111.4,294.6,111.4C294.6,111.4,294.6,111.4,294.6,111.4"/>
					<path class="st17" d="M294.6,111.4l0.9,6c0.1,0.1,0.1,0.3,0.2,0.4L294.6,111.4C294.6,111.4,294.6,111.4,294.6,111.4"/>
					<path class="st16" d="M294.6,111.4l1.1,6.4c0.1,0.1,0.1,0.2,0.2,0.3L294.6,111.4C294.6,111.4,294.6,111.4,294.6,111.4"/>
					<path class="st15" d="M294.6,111.4l1.3,6.7c0.1,0.1,0.1,0.2,0.2,0.2L294.6,111.4C294.6,111.4,294.6,111.4,294.6,111.4"/>
					<path class="st14" d="M294.6,111.4l1.5,6.9c0.1,0.1,0.1,0.1,0.2,0.2L294.6,111.4C294.6,111.4,294.6,111.4,294.6,111.4"/>
					<path class="st13" d="M294.6,111.4l1.7,7.1c0.1,0.1,0.1,0.1,0.2,0.2L294.6,111.4C294.6,111.4,294.6,111.4,294.6,111.4"/>
					<path class="st12" d="M294.6,111.4l2,7.3c0.1,0.1,0.2,0.1,0.2,0.1L294.6,111.4C294.6,111.4,294.6,111.4,294.6,111.4"/>
					<path class="st11" d="M294.6,111.4l2.2,7.5c0.1,0,0.2,0.1,0.2,0.1L294.6,111.4C294.6,111.4,294.6,111.4,294.6,111.4"/>
					<path class="st10" d="M294.6,111.4l2.4,7.6c0.1,0,0.2,0.1,0.3,0.1L294.6,111.4C294.6,111.4,294.6,111.4,294.6,111.4"/>
					<path class="st9" d="M294.6,111.4l2.7,7.7c0.1,0,0.2,0.1,0.3,0.1L294.6,111.4C294.6,111.4,294.6,111.4,294.6,111.4"/>
					<path class="st8" d="M294.6,111.4l3,7.8c0.1,0,0.2,0,0.3,0.1L294.6,111.4C294.6,111.4,294.6,111.4,294.6,111.4"/>
					<path class="st7" d="M294.6,111.4l3.3,7.8c0.1,0,0.2,0,0.4,0L294.6,111.4C294.6,111.4,294.6,111.4,294.6,111.4"/>
					<path class="st6" d="M294.6,111.4l3.6,7.9c0.1,0,0.3,0,0.5,0L294.6,111.4C294.6,111.4,294.6,111.4,294.6,111.4"/>
					<path class="st5" d="M294.6,111.4l4.1,7.9c0.2,0,0.4-0.1,0.6-0.1L294.6,111.4C294.6,111.4,294.6,111.4,294.6,111.4"/>
				</g>
			</g>
			<g class="st3">
				<defs>
					<path id="SVGID_15_" class="st3" d="M298.7,115.9l-4.1-4.5c0,0,0,0,0,0C295.8,112.8,297.4,114.6,298.7,115.9z"/>
				</defs>
				<clipPath id="SVGID_16_">
					<use xlink:href="#SVGID_15_"  style="overflow:visible;"/>
				</clipPath>
				<g class="st25">
					<polyline class="st18" points="298.7,115.9 294.6,111.4 294.6,111.4 298.7,115.9"/>
					<polyline class="st17" points="298.7,115.9 294.6,111.4 294.6,111.4 298.7,115.9"/>
					<polyline class="st16" points="298.7,115.9 294.6,111.4 294.6,111.4 298.7,115.9"/>
					<polyline class="st15" points="298.7,115.9 294.6,111.4 294.6,111.4 298.7,115.9"/>
					<polyline class="st14" points="298.7,115.9 294.6,111.4 294.6,111.4 298.7,115.9"/>
					<polyline class="st13" points="298.7,115.9 294.6,111.4 294.6,111.4 298.7,115.9"/>
					<polyline class="st14" points="298.7,115.9 294.6,111.4 294.6,111.4 298.7,115.9"/>
					<polyline class="st15" points="298.7,115.9 294.6,111.4 294.6,111.4 298.7,115.9"/>
					<polyline class="st16" points="298.7,115.9 294.6,111.4 294.6,111.4 298.7,115.9"/>
				</g>
			</g>
			<g class="st3">
				<defs>
					<path id="SVGID_17_" class="st3" d="M294.6,111.4l5.1,1.2c-0.5-0.1-1.1-0.1-1.6,0c-1.8,0.5-3,2.2-2.8,4L294.6,111.4
						C294.6,111.4,294.6,111.4,294.6,111.4C294.6,111.4,294.6,111.4,294.6,111.4z"/>
				</defs>
				<clipPath id="SVGID_18_">
					<use xlink:href="#SVGID_17_"  style="overflow:visible;"/>
				</clipPath>
				<g class="st26">
					<path class="st15" d="M294.6,111.4l5.1,1.2c-0.2,0-0.3-0.1-0.5-0.1L294.6,111.4C294.6,111.4,294.6,111.4,294.6,111.4"/>
					<path class="st14" d="M294.6,111.4l4.6,1.1c-0.3,0-0.6,0-0.9,0.1L294.6,111.4C294.6,111.4,294.6,111.4,294.6,111.4"/>
					<path class="st13" d="M294.6,111.4l3.7,1.1c-0.1,0-0.1,0-0.2,0c-0.3,0.1-0.6,0.2-0.9,0.4L294.6,111.4
						C294.6,111.4,294.6,111.4,294.6,111.4C294.6,111.4,294.6,111.4,294.6,111.4"/>
					<path class="st14" d="M294.6,111.4l2.6,1.6c-0.3,0.2-0.5,0.3-0.8,0.6L294.6,111.4C294.6,111.4,294.6,111.4,294.6,111.4"/>
					<path class="st15" d="M294.6,111.4l1.8,2.1c-0.2,0.1-0.3,0.3-0.4,0.5L294.6,111.4C294.6,111.4,294.6,111.4,294.6,111.4"/>
					<path class="st16" d="M294.6,111.4l1.4,2.6c-0.1,0.2-0.2,0.3-0.3,0.5L294.6,111.4C294.6,111.4,294.6,111.4,294.6,111.4"/>
					<path class="st17" d="M294.6,111.4l1.1,3.1c-0.1,0.2-0.2,0.4-0.2,0.6L294.6,111.4C294.6,111.4,294.6,111.4,294.6,111.4"/>
					<path class="st18" d="M294.6,111.4l0.8,3.7c-0.2,0.5-0.2,1-0.1,1.5L294.6,111.4C294.6,111.4,294.6,111.4,294.6,111.4"/>
				</g>
			</g>
			<g class="st3">
				<defs>
					<path id="SVGID_19_" class="st3" d="M328.6,142.9c0.4,0.4,0.7,1,0.8,1.7c0.4,2-1,4.1-3,4.6l-27.1-30c1.9-0.5,3.1-2.4,2.7-4.2
						c-0.1-0.6-0.4-1.1-0.8-1.5C310.4,123.3,319.5,133.1,328.6,142.9z"/>
				</defs>
				<clipPath id="SVGID_20_">
					<use xlink:href="#SVGID_19_"  style="overflow:visible;"/>
				</clipPath>
				<g class="st27">
					<path class="st9" d="M299.3,119.2l27.1,30c0.5-0.1,0.9-0.3,1.3-0.6l-27.3-29.9C300.1,118.9,299.7,119.1,299.3,119.2"/>
					<path class="st10" d="M300.4,118.7l27.3,29.9c0.2-0.1,0.4-0.3,0.5-0.4l-27.3-29.9C300.8,118.4,300.6,118.6,300.4,118.7"/>
					<path class="st11" d="M300.9,118.3l27.3,29.9c0.1-0.1,0.2-0.2,0.3-0.4L301.2,118C301.1,118.1,301,118.2,300.9,118.3"/>
					<path class="st12" d="M301.2,118l27.3,29.9c0.1-0.1,0.2-0.2,0.3-0.4l-27.4-29.8C301.4,117.8,301.3,117.9,301.2,118"/>
					<path class="st13" d="M301.5,117.6l27.4,29.8c0.1-0.1,0.1-0.2,0.2-0.4l-27.4-29.8C301.6,117.4,301.5,117.5,301.5,117.6"/>
					<path class="st14" d="M301.7,117.3l27.4,29.8c0.1-0.1,0.1-0.2,0.2-0.4L301.8,117C301.8,117.1,301.7,117.2,301.7,117.3"/>
					<path class="st15" d="M301.8,117l27.4,29.8c0.1-0.1,0.1-0.3,0.1-0.4l-27.4-29.7C301.9,116.8,301.9,116.9,301.8,117"/>
					<path class="st16" d="M301.9,116.6l27.4,29.7c0-0.1,0.1-0.3,0.1-0.4L302,116.2C302,116.4,302,116.5,301.9,116.6"/>
					<path class="st17" d="M302,116.2l27.4,29.7c0-0.2,0.1-0.4,0.1-0.5l-27.4-29.7C302.1,115.9,302.1,116.1,302,116.2"/>
					<path class="st18" d="M302.1,115.7l27.4,29.7c0-0.3,0-0.5-0.1-0.8c-0.1-0.7-0.4-1.2-0.8-1.7l-27.3-29.4
						c0.4,0.4,0.7,0.9,0.8,1.5C302.1,115.3,302.1,115.5,302.1,115.7"/>
				</g>
			</g>
			<g class="st3">
				<defs>
					<path id="SVGID_21_" class="st3" d="M296,118.3c0.8,0.9,2,1.2,3.3,0.9l27.1,30c-1.4,0.4-2.8-0.1-3.6-1
						C313.9,138.2,305,128.2,296,118.3z"/>
				</defs>
				<clipPath id="SVGID_22_">
					<use xlink:href="#SVGID_21_"  style="overflow:visible;"/>
				</clipPath>
				<g class="st28">
					<path class="st17" d="M296,118.3l26.8,29.9c0.1,0.1,0.1,0.1,0.2,0.2l-26.8-29.9C296.1,118.4,296.1,118.3,296,118.3"/>
					<path class="st16" d="M296.2,118.4l26.8,29.9c0.1,0.1,0.2,0.2,0.3,0.3l-26.9-29.9C296.4,118.6,296.3,118.5,296.2,118.4"/>
					<path class="st15" d="M296.5,118.7l26.9,29.9c0.1,0.1,0.2,0.1,0.3,0.2l-26.9-30C296.7,118.8,296.6,118.8,296.5,118.7"/>
					<path class="st14" d="M296.8,118.9l26.9,30c0.1,0.1,0.2,0.1,0.3,0.2l-26.9-30C297,119,296.9,119,296.8,118.9"/>
					<path class="st13" d="M297.1,119l26.9,30c0.1,0.1,0.2,0.1,0.4,0.1l-27-30C297.3,119.1,297.2,119.1,297.1,119"/>
					<path class="st12" d="M297.4,119.2l27,30c0.1,0,0.3,0.1,0.4,0.1l-27-30C297.7,119.2,297.6,119.2,297.4,119.2"/>
					<path class="st11" d="M297.8,119.3l27,30c0.2,0,0.3,0,0.5,0.1l-27-30C298.1,119.3,297.9,119.3,297.8,119.3"/>
					<path class="st10" d="M298.2,119.3l27,30c0.2,0,0.4,0,0.6,0l-27.1-30C298.6,119.3,298.4,119.3,298.2,119.3"/>
					<path class="st9" d="M298.8,119.3l27.1,30c0.2,0,0.4-0.1,0.5-0.1l-27.1-30C299.1,119.2,299,119.3,298.8,119.3"/>
				</g>
			</g>
			<g class="st3">
				<defs>
					<path id="SVGID_23_" class="st3" d="M298.7,115.9c9.1,9.8,18.3,19.6,27.4,29.4c0,0,0.1,0.1,0.1,0.2c0,0.2-0.1,0.4-0.3,0.5
						L298.7,115.9z"/>
				</defs>
				<clipPath id="SVGID_24_">
					<use xlink:href="#SVGID_23_"  style="overflow:visible;"/>
				</clipPath>
				<g class="st29">
					<path class="st9" d="M325.8,145.9l-27.2-30l27.3,30C325.9,145.9,325.9,145.9,325.8,145.9"/>
					<path class="st10" d="M325.9,145.9l-27.3-30L325.9,145.9C326,145.9,326,145.9,325.9,145.9"/>
					<path class="st11" d="M326,145.8l-27.3-29.9L326,145.8C326,145.8,326,145.8,326,145.8"/>
					<path class="st12" d="M326,145.8l-27.4-29.9L326,145.8C326.1,145.8,326,145.8,326,145.8"/>
					<path class="st13" d="M326.1,145.8l-27.4-29.9L326.1,145.8C326.1,145.7,326.1,145.8,326.1,145.8"/>
					<path class="st14" d="M326.1,145.7l-27.4-29.8L326.1,145.7C326.1,145.7,326.1,145.7,326.1,145.7"/>
					<path class="st15" d="M326.1,145.7l-27.4-29.8L326.1,145.7C326.1,145.7,326.1,145.7,326.1,145.7"/>
					<path class="st16" d="M326.1,145.7l-27.5-29.8L326.1,145.7C326.1,145.6,326.1,145.6,326.1,145.7"/>
					<path class="st17" d="M326.1,145.6l-27.5-29.7L326.1,145.6C326.1,145.6,326.1,145.6,326.1,145.6"/>
					<path class="st18" d="M326.1,145.6l-27.5-29.7l27.4,29.4C326.1,145.3,326.1,145.4,326.1,145.6
						C326.1,145.5,326.1,145.5,326.1,145.6"/>
				</g>
			</g>
			<g class="st3">
				<defs>
					<path id="SVGID_25_" class="st3" d="M325.4,145.8c-8.9-10-17.9-20-26.8-29.9l27.2,30C325.7,146,325.5,145.9,325.4,145.8z"/>
				</defs>
				<clipPath id="SVGID_26_">
					<use xlink:href="#SVGID_25_"  style="overflow:visible;"/>
				</clipPath>
				<g class="st30">
					<path class="st17" d="M325.4,145.8l-26.8-29.9L325.4,145.8C325.5,145.9,325.4,145.8,325.4,145.8"/>
					<path class="st16" d="M325.5,145.9l-26.8-30L325.5,145.9C325.5,145.9,325.5,145.9,325.5,145.9"/>
					<path class="st15" d="M325.5,145.9l-26.8-30L325.5,145.9C325.5,145.9,325.5,145.9,325.5,145.9"/>
					<path class="st14" d="M325.5,145.9l-26.9-30L325.5,145.9C325.6,145.9,325.5,145.9,325.5,145.9"/>
					<path class="st13" d="M325.6,145.9l-26.9-30L325.6,145.9C325.6,145.9,325.6,145.9,325.6,145.9"/>
					<path class="st12" d="M325.6,145.9l-26.9-30L325.6,145.9C325.6,146,325.6,145.9,325.6,145.9"/>
					<path class="st11" d="M325.6,146l-27-30.1L325.6,146C325.7,146,325.7,146,325.6,146"/>
					<path class="st10" d="M325.7,146l-27-30.1L325.7,146C325.7,146,325.7,146,325.7,146"/>
					<path class="st9" d="M325.8,146l-27.1-30.1L325.8,146C325.8,146,325.8,146,325.8,146"/>
				</g>
			</g>
			<g class="st3">
				<defs>
					<path id="SVGID_27_" class="st3" d="M326,145.3c-0.1-0.1-0.2-0.1-0.4-0.1c-0.2,0.1-0.4,0.3-0.3,0.5c0,0.1,0,0.1,0.1,0.2
						c-8.9-10-17.9-20-26.8-29.9C307.8,125.7,316.9,135.5,326,145.3z"/>
				</defs>
				<clipPath id="SVGID_28_">
					<use xlink:href="#SVGID_27_"  style="overflow:visible;"/>
				</clipPath>
				<g class="st31">
					<path class="st17" d="M326,145.3l-27.4-29.4L326,145.3C326,145.3,326,145.3,326,145.3"/>
					<path class="st16" d="M326,145.3l-27.4-29.4L326,145.3C326,145.3,326,145.3,326,145.3"/>
					<path class="st15" d="M326,145.3l-27.3-29.3L326,145.3C326,145.2,326,145.2,326,145.3"/>
					<path class="st14" d="M326,145.2l-27.3-29.3L326,145.2C325.9,145.2,325.9,145.2,326,145.2"/>
					<path class="st13" d="M325.9,145.2l-27.3-29.3L325.9,145.2C325.9,145.2,325.9,145.2,325.9,145.2"/>
					<path class="st12" d="M325.9,145.2l-27.2-29.3L325.9,145.2C325.8,145.2,325.9,145.2,325.9,145.2"/>
					<path class="st11" d="M325.8,145.2l-27.2-29.3L325.8,145.2C325.8,145.2,325.8,145.2,325.8,145.2"/>
					<path class="st10" d="M325.8,145.2l-27.1-29.3L325.8,145.2C325.7,145.2,325.8,145.2,325.8,145.2"/>
					<path class="st9" d="M325.7,145.2l-27-29.3l26.9,29.3C325.6,145.2,325.6,145.2,325.7,145.2
						C325.7,145.2,325.7,145.2,325.7,145.2"/>
					<path class="st10" d="M325.5,145.2l-26.9-29.3L325.5,145.2C325.5,145.3,325.5,145.3,325.5,145.2"/>
					<path class="st11" d="M325.5,145.3l-26.8-29.4L325.5,145.3C325.5,145.3,325.5,145.3,325.5,145.3"/>
					<path class="st12" d="M325.5,145.3l-26.8-29.4L325.5,145.3C325.4,145.4,325.4,145.3,325.5,145.3"/>
					<path class="st13" d="M325.4,145.4l-26.8-29.5L325.4,145.4C325.4,145.4,325.4,145.4,325.4,145.4"/>
					<path class="st14" d="M325.4,145.4l-26.7-29.5L325.4,145.4C325.4,145.4,325.4,145.4,325.4,145.4"/>
					<path class="st15" d="M325.4,145.4l-26.7-29.5L325.4,145.4C325.4,145.5,325.4,145.5,325.4,145.4"/>
					<path class="st16" d="M325.4,145.5l-26.7-29.6L325.4,145.5C325.4,145.5,325.4,145.5,325.4,145.5"/>
					<path class="st17" d="M325.4,145.5l-26.7-29.6L325.4,145.5C325.4,145.6,325.4,145.5,325.4,145.5"/>
					<path class="st18" d="M325.3,145.6l-26.7-29.7l26.8,29.9C325.4,145.8,325.4,145.7,325.3,145.6
						C325.4,145.6,325.3,145.6,325.3,145.6"/>
				</g>
			</g>
			<g class="st3">
				<defs>
					<path id="SVGID_29_" class="st3" d="M301.3,113.5c9.1,9.8,18.2,19.6,27.3,29.4c-0.8-0.9-2.2-1.3-3.6-1c-2,0.5-3.4,2.6-3,4.6
						c0.1,0.6,0.4,1.2,0.8,1.6c0,0,0,0,0,0c-8.9-10-17.9-19.9-26.8-29.9c-0.4-0.4-0.6-0.9-0.7-1.5c-0.3-1.8,0.9-3.7,2.7-4.2
						C299.3,112.3,300.5,112.7,301.3,113.5z"/>
				</defs>
				<clipPath id="SVGID_30_">
					<use xlink:href="#SVGID_29_"  style="overflow:visible;"/>
				</clipPath>
				<g class="st32">
					<path class="st17" d="M301.3,113.5l27.3,29.4c-0.1-0.1-0.1-0.1-0.2-0.2l-27.3-29.4C301.2,113.4,301.2,113.4,301.3,113.5"/>
					<path class="st16" d="M301.1,113.3l27.3,29.4c-0.1-0.1-0.2-0.2-0.3-0.3l-27.3-29.4C300.9,113.2,301,113.2,301.1,113.3"/>
					<path class="st15" d="M300.8,113.1l27.3,29.4c-0.1-0.1-0.2-0.1-0.3-0.2l-27.3-29.4C300.6,112.9,300.7,113,300.8,113.1"/>
					<path class="st14" d="M300.5,112.9l27.3,29.4c-0.1-0.1-0.2-0.1-0.4-0.2l-27.2-29.4C300.3,112.8,300.4,112.8,300.5,112.9"/>
					<path class="st13" d="M300.2,112.7l27.2,29.4c-0.1-0.1-0.2-0.1-0.4-0.1l-27.2-29.3C300,112.6,300.1,112.7,300.2,112.7"/>
					<path class="st12" d="M299.8,112.6L327,142c-0.1,0-0.3-0.1-0.4-0.1l-27.2-29.3C299.6,112.6,299.7,112.6,299.8,112.6"/>
					<path class="st11" d="M299.5,112.5l27.2,29.3c-0.2,0-0.3,0-0.5,0L299,112.5C299.2,112.5,299.3,112.5,299.5,112.5"/>
					<path class="st10" d="M299,112.5l27.1,29.3c-0.2,0-0.5,0-0.7,0l-27.1-29.3C298.6,112.5,298.8,112.5,299,112.5"/>
					<path class="st9" d="M298.4,112.5l27.1,29.3c-0.1,0-0.3,0-0.4,0.1c-0.4,0.1-0.8,0.3-1.2,0.5L297,113.1c0.3-0.2,0.7-0.4,1.1-0.5
						C298.2,112.6,298.3,112.5,298.4,112.5"/>
					<path class="st10" d="M297,113.1l26.9,29.4c-0.2,0.1-0.4,0.3-0.6,0.4l-26.9-29.4C296.6,113.3,296.8,113.2,297,113.1"/>
					<path class="st11" d="M296.5,113.5l26.9,29.4c-0.1,0.1-0.2,0.2-0.4,0.4l-26.8-29.5C296.2,113.7,296.3,113.6,296.5,113.5"/>
					<path class="st12" d="M296.1,113.8l26.8,29.5c-0.1,0.1-0.2,0.2-0.3,0.4l-26.8-29.5C296,114,296,113.9,296.1,113.8"/>
					<path class="st13" d="M295.9,114.1l26.8,29.5c-0.1,0.1-0.2,0.2-0.2,0.4l-26.8-29.5C295.7,114.3,295.8,114.2,295.9,114.1"/>
					<path class="st14" d="M295.7,114.4l26.8,29.5c-0.1,0.1-0.1,0.2-0.2,0.4l-26.8-29.6C295.6,114.7,295.6,114.5,295.7,114.4"/>
					<path class="st15" d="M295.5,114.8l26.8,29.6c-0.1,0.1-0.1,0.3-0.1,0.4l-26.8-29.6C295.4,115,295.5,114.9,295.5,114.8"/>
					<path class="st16" d="M295.4,115.1l26.8,29.6c0,0.1-0.1,0.3-0.1,0.4l-26.7-29.6C295.3,115.4,295.3,115.3,295.4,115.1"/>
					<path class="st17" d="M295.3,115.5l26.7,29.6c0,0.2-0.1,0.4-0.1,0.5L295.2,116C295.2,115.9,295.3,115.7,295.3,115.5"/>
					<path class="st18" d="M295.2,116l26.7,29.7c0,0.3,0,0.6,0.1,0.8c0.1,0.6,0.4,1.2,0.8,1.6L296,118.3c-0.4-0.4-0.6-0.9-0.7-1.5
						C295.2,116.5,295.2,116.3,295.2,116"/>
				</g>
			</g>
			<g class="st3">
				<defs>
					<path id="SVGID_31_" class="st3" d="M326.4,149.2l-0.6-3.2c0.2-0.1,0.4-0.3,0.3-0.5s-0.2-0.3-0.5-0.3c-0.2,0.1-0.4,0.3-0.3,0.5
						s0.2,0.3,0.5,0.3L326.4,149.2c-2,0.5-4-0.6-4.4-2.6c-0.4-2,1-4.1,3-4.6c2-0.5,4,0.6,4.4,2.6
						C329.8,146.6,328.5,148.6,326.4,149.2z"/>
				</defs>
				<clipPath id="SVGID_32_">
					<use xlink:href="#SVGID_31_"  style="overflow:visible;"/>
				</clipPath>
				<g class="st33">
					<path class="st8" d="M326.4,149.2l-0.6-3.2c0.1,0,0.2-0.1,0.2-0.2l2.8,1.7C328.3,148.3,327.4,148.9,326.4,149.2"/>
					<path class="st7" d="M328.8,147.5l-2.8-1.7c0.1-0.1,0.1-0.2,0.1-0.3c0-0.2-0.2-0.3-0.5-0.3c-0.2,0.1-0.4,0.3-0.3,0.5
						c0,0.1,0.1,0.2,0.3,0.3l-1.2,3.2c-1.2-0.3-2.2-1.3-2.4-2.6c-0.4-2,1-4.1,3-4.6c2-0.5,4,0.6,4.4,2.6
						C329.6,145.6,329.4,146.6,328.8,147.5"/>
					<path class="st8" d="M324.4,149.2l1.2-3.2c0.1,0,0.1,0,0.2,0l0.6,3.2C325.7,149.4,325.1,149.3,324.4,149.2"/>
				</g>
			</g>
		</g>
	</g>
</g>
<text id="txt" transform="matrix(1 0 0 1 291.7988 69.436)" class="st34 st35">记事</text>
</svg>
