<?xml version="1.0" encoding="utf-8"?>
<!-- Generator: Adobe Illustrator 23.0.6, SVG Export Plug-In . SVG Version: 6.00 Build 0)  -->
<svg version="1.1" id="图层_1" xmlns="http://www.w3.org/2000/svg" xmlns:xlink="http://www.w3.org/1999/xlink" x="0px" y="0px"
	 viewBox="0 0 322 198.2" style="enable-background:new 0 0 322 198.2;" xml:space="preserve">
<g id="记">
	<path d="M109.6,46c3.5-5.3,6.5-8,9.2-8s6.9,2.4,12.7,7.1s8.7,8.6,8.7,11.5c-0.1,1.7-0.8,3.2-2,4.4c-6.5,7.1-9.8,12.5-9.8,16.4
		c0,0.9,0.2,1.8,0.6,2.7c0.4,0.9,0.6,1.9,0.6,2.9c0,2.7-2.8,4.8-8.4,6.4c-14,4.3-23.5,10.8-28.5,19.7c-4.9,8.4-7.5,18-7.5,27.7
		c0,2.7,2.4,4.7,7.2,6.2c4.8,1.5,10.9,2.2,18.2,2.2c7.1,0,14.2-0.4,21.2-1.3c5.4-0.6,10.7-1.7,15.8-3.3c3.3-1,6.2-2.8,8.7-5.2
		c2-2,3.4-4.4,4.1-7.1c0.8-3.8,1.1-7.7,1-11.6c0-5.1,0.2-7.7,0.6-7.7c0.4,0,1.2,2.1,2.4,6.4c2.9,11.2,6.2,19.2,9.8,24
		c1.3,1.5,2.1,3.4,2.2,5.4c0,4.5-4.9,8.2-14.8,11.1s-22.6,4.3-38.2,4.3c-7,0.1-13.9-0.3-20.8-1.2c-5.2-0.8-9-1.8-11.5-3.1
		c-2.6-1.3-4.9-3.1-6.9-5.2c-2.1-2.2-3.7-4.8-4.8-7.6c-1.1-2.9-1.6-7.6-1.6-14.2s1.7-16.3,5-29.1c-2.3-3.1-3.4-5.7-3.4-7.9
		s2.1-3.9,6.4-5.1c10.5-2.9,17.6-5.9,21.1-8.9c3.4-2.9,6.2-6.5,8.2-10.5c1.9-4,2.9-6.9,2.9-8.6c0-1.7-0.5-2.6-1.6-2.6
		c-2,0-4.9,2.1-8.7,6.3c-3.3,4-8.3,6.3-13.5,6.3c-2.3,0-4.6-0.4-6.8-1.2c-4.9,0.4-9.5,3.6-13.7,9.6s-9.7,19-16.6,38.9
		s-10.3,32.3-10.3,37.1l0.4,6.2c0,2.9-1,4.4-3,4.4s-4.5-2.4-7.6-7.2s-4.6-8.8-4.6-12c0-0.9,0.1-1.9,0.2-2.8c0.5-2.7,1-8.4,1.5-17.1
		s0.7-17.8,0.7-27.1c-4.4,5.9-7.3,9.9-8.8,12c-1.1,1.8-2.7,3.3-4.6,4.2c-1.5,0.6-3,1-4.6,1c-4.8,0-8.7-2.4-11.8-7.1
		C1.5,103,0,98.4,0,94c0-2.7,0.7-5.4,1.9-7.8c1.3-2.7,2.1-4,2.6-4s0.7,0.6,0.7,1.9c0,1.5-0.2,3-0.4,4.5c-0.2,1.5-0.4,3-0.4,4.5
		C4.4,94.4,5.3,95,7,95c3.7,0,8.2-1.5,13.3-4.5s8.4-5.5,9.7-7.6c1.4-2.1,3.4-3.7,5.7-4.7c2.6-1.1,5.4-1.6,8.2-1.6
		c2.8-0.1,5.5,1.1,7.2,3.3c1.7,2,2.7,4.5,2.7,7.1c-0.2,2.2-0.9,4.4-2.1,6.3c-1.4,2.5-2.9,6.8-4.5,13.1c-1.6,6.3-2.4,10.8-2.4,13.6
		c-0.1,1.9,0.1,3.8,0.4,5.6c7.3-16.3,13.4-28.7,18.2-37.4c4.6-8.3,10-16.2,16.2-23.4c-0.1-0.5-0.2-0.9-0.2-1.4
		c0-2.1,2.1-4.4,6.2-6.8C89.7,54.2,97.7,50.7,109.6,46z"/>
	<path d="M43.6,34c3.9,0.3,7.8,0.8,11.6,1.5c6.1,1,9.8,2.8,10.9,5.3c1.1,2.4,1.7,5,1.7,7.7c0,2.6-0.4,4.2-1.2,4.8
		c-1.5,0.9-3.2,1.5-4.9,1.8c-2.2,0.5-4.4,1.2-6.6,2c-1.9,0.7-6.2,2.6-12.7,5.7L21,73c-3.5,1.6-5.6,2.4-6.3,2.4s-1.1-0.1-1.1-0.2
		c0-0.4,0.6-1,1.8-1.8c5.1-3.5,10-7.3,14.6-11.5c5.5-4.9,8.8-8.1,10.1-9.7c1.1-1.2,1.7-2.6,1.9-4.2c0-1.1-1-2.3-3-3.6
		c-2.1-1.5-3.8-3.5-4.9-5.8c-1.3-2.5-1.9-4.1-1.9-4.6s0.2-0.8,0.5-0.8c0.8,0.1,1.5,0.4,2.2,0.8c0.9,0.5,1.9,0.7,2.9,0.8
		c0.9,0,1.9-0.2,2.8-0.4C41.6,34.1,42.6,34,43.6,34z"/>
</g>
<path id="事" d="M317.2,26.9c-2.9-3-6.9-4.7-11.1-4.7c-4.2,0-14.3,2.7-30.3,8c0.3-4.2,0.1-8.4-0.6-12.5c-0.9-3.5-2.3-6.8-4.2-9.8
	c-2.1-3.5-3.7-5.7-4.8-6.6S263.4,0,260.9,0c-2.2-0.1-4.4,0.5-6.2,1.7c-1.7,1.1-2.5,2.2-2.5,3.3c0,1.1,0.4,2.1,1.2,2.8
	c0.8,0.8,1.4,2.8,1.7,6s0.8,10.9,1.3,23c-33.7,12.5-53.3,18.8-58.6,18.8l-2.6-0.2c-1.3,0-2,0.5-2,1.5s1.6,3.6,4.7,7.9
	c3.1,4.3,6.9,6.4,11.3,6.4c1.9,0,4.2-0.8,7-2.3s8.5-3.9,17-7.2c8.5-3.3,16.5-6,24-8.3c0.7,0.6,1.1,1.5,1.2,2.4
	c0,2.9-7.1,7.9-21.2,15c-2,1.1-3.7,3.4-5,7.1c-1.3,3.7-2,6.2-2,7.7c0,2.3,1,3.4,3,3.4c1.9-0.4,3.7-0.9,5.5-1.7
	c3-1.1,7.4-2.5,13.3-4.1c-3.4,3.8-7.3,7.1-11.6,9.7c-4.1,2.5-7.9,3.8-11.2,4.1c-2.4,0.3-4.1,2.3-5,6c-0.7,2.4-1.2,4.9-1.4,7.4
	c0,3.5,1.5,5.2,4.6,5.2c1.3,0,2.5-0.4,3.6-1c11.2-6.3,20.5-10.4,27.8-12.4c0.1,1.8-0.7,3.6-2.3,4.6c-1.7,1.2-6.1,3.5-13.3,7
	c-2.5,1.3-4.7,3.3-6.4,5.6c-1.7,2-2.7,4.5-2.8,7.1c-0.1,2,0.9,3.9,2.7,4.9c1.8,1.1,5,2.1,9.5,3.2c-1.9,1.7-3.8,3.3-5.9,4.7
	c-1.6,1-3.4,1.5-5.3,1.5c-1.4-0.1-2.7,0.1-4,0.5c-0.9,0.6-1.6,1.5-1.9,2.6c-0.7,1.9-1,4-0.9,6c0,2.5,0.8,4.9,2.4,6.8
	c1.5,1.9,3.8,3,6.2,2.9c1.3,0,4.1-0.9,8.2-2.6c4.1-1.7,9-3.9,14.6-6.6c0.3,2.7,0.4,6.6,0.4,11.7c0,5.1-0.2,8.1-0.5,9
	c-0.3,0.9-1.5,1.6-3.6,2.3c-2.5,0.7-5.2,1.1-7.8,1c-2.5,0-5.1-0.2-7.6-0.6c-1.4-0.3-2.9-0.5-4.3-0.6c-0.9,0-1.4,0.4-1.4,1.1
	c0,0.7,0.9,1.7,2.8,2.9c11.9,7.3,20.1,13.6,24.6,18.8c1.3,1.5,2.4,2.2,3.2,2.2c0.8,0,2.4-2.5,4.7-7.4c2.3-4.9,3.5-8.7,3.5-11.4
	c0-20,0.1-30.9,0.4-32.8c5.3-0.9,10.6-1.3,16-1.4l7.2,0.2c1,0.1,2.1-0.1,3-0.6c0.6-0.5,0.9-1.2,0.8-1.9c0-1-0.1-2.1-0.2-3.1
	c2.7-3.2,6.2-9.8,10.7-19.8s6.7-16.3,6.7-18.8s-1.4-5.4-4.3-8.6c-2.5-2.9-5.5-5.4-8.9-7.2c-3.1-1.6-7.2-2.4-12.3-2.4
	c-5.8,0-11.6,0.4-17.3,1c4.8-5.6,8.7-9.5,11.6-11.6c1.1-0.9,1.7-2.2,1.6-3.6c0-3.6-2.1-6.7-6.4-9.4l20.6-12.6c6.1-3.7,10-6,11.5-6.7
	c1.2-0.6,2.5-1.1,3.9-1.3c2.5-0.4,3.8-1.7,3.8-3.9S320.4,30,317.2,26.9z M248.2,132.8c-1.5-0.9-2.2-1.9-2.2-2.9s0.6-2,1.5-2.5
	c0.9-0.6,2.1-1,3.2-1c0.9,0,1.8,0.1,2.7,0.2C252.1,129,250.3,131.1,248.2,132.8z M292.7,95c2.6,0,4.3,0.3,5,1c0.7,0.7,1.1,2,1.1,4
	c-0.1,5.7-1.5,11.4-4,16.5c-2.7,5.8-4.7,8.7-6.2,8.7c-0.9,0-2-1.3-3.2-3.8l-6-12c-2.7-5.5-4-9.4-4-11.8
	C284.3,95.9,290.1,95,292.7,95z M275.7,125.2c0.7-2.1,1.4-3.2,2.1-3.2c1.5,0,2.1,3.3,2,10c-1.8-0.1-3.6-0.1-5.4,0
	C274.5,129.7,275,127.4,275.7,125.2z"/>
</svg>
